<?xml version="1.0" encoding="UTF-8"?><svg id="Layer_2" xmlns="http://www.w3.org/2000/svg" viewBox="0 0 178.61 178.61"><defs><style>.cls-1{fill:none;}.cls-2{fill:#f2ecdf;}.cls-3{fill:#a16333;}.cls-4{fill:#bd7f27;}.cls-5{fill:#d7c9b7;}.cls-6{fill:#d08f2b;}</style></defs><g id="Layer_1-2"><g><path class="cls-3" d="M89.7,138.54l-.5,7.95-1.65,26.18c-.11,1.81-1.31,3.2-2.73,3.2-.04,0-.07,0-.11,0-1.56-.08-2.76-1.8-2.62-3.78l1.82-25.93,.47-6.67,5.32-.94Z"/><polygon class="cls-4" points="89.7 138.54 89.2 146.49 83.91 146.15 84.38 139.48 89.7 138.54"/><ellipse class="cls-5" cx="93.55" cy="71.55" rx="51.63" ry="68.82"/><path class="cls-3" d="M65.63,133.73l-1.29,6.32-6.72,32.9c-.39,1.92-1.93,3.07-3.44,2.57-1.27-.42-2.11-1.87-2.11-3.47,0-.3,.03-.61,.09-.91l6.96-33.72,1.47-7.09,5.04,3.4Z"/><polygon class="cls-4" points="65.63 133.73 64.34 140.05 59.13 137.42 60.59 130.33 65.63 133.73"/><ellipse class="cls-2" cx="85.06" cy="71.55" rx="51.63" ry="68.82"/><path class="cls-3" d="M137.86,171.54c0,1.36-.63,2.62-1.6,3.2-.32,.19-.68,.31-1.06,.33-1.2,.07-2.3-.85-2.73-2.27l-13.27-44.18c-.49-1.63,.02-3.47,1.21-4.35,.12-.09,.25-.17,.37-.23,1.43-.72,3.09,.16,3.65,2.04l13.24,44.19c.12,.42,.18,.85,.18,1.26Z"/><path class="cls-6" d="M137.86,171.54c0,1.36-.63,2.62-1.6,3.2l-15.48-50.7c1.43-.72,3.09,.16,3.65,2.04l13.24,44.19c.12,.42,.18,.85,.18,1.26Z"/></g><rect class="cls-1" width="178.61" height="178.61"/></g></svg>