<?xml version="1.0" encoding="UTF-8"?><svg xmlns="http://www.w3.org/2000/svg" xmlns:xlink="http://www.w3.org/1999/xlink" viewBox="0 0 54.22 58.58"><defs><style>.cls-1{fill:url(#linear-gradient);}.cls-2{mask:url(#mask);}.cls-3{filter:url(#luminosity-noclip-2);}.cls-4{fill:#010705;}.cls-5,.cls-6{fill:#fff;}.cls-7{fill:#9e4000;}.cls-8,.cls-9{fill:#8e0055;}.cls-10{fill:#c97b3a;}.cls-11{fill:#1b8943;}.cls-12{fill:url(#linear-gradient-2);}.cls-12,.cls-9,.cls-13,.cls-14,.cls-15,.cls-16{mix-blend-mode:multiply;}.cls-9,.cls-17,.cls-18,.cls-15{opacity:.5;}.cls-19{fill:url(#linear-gradient-3);}.cls-20{fill:url(#linear-gradient-4);}.cls-21{fill:url(#radial-gradient);}.cls-22{isolation:isolate;}.cls-13{opacity:.4;}.cls-14{opacity:.2;}.cls-18{fill:#ffde55;}.cls-18,.cls-6{mix-blend-mode:overlay;}.cls-6{opacity:.6;}.cls-23{mask:url(#mask-2);}.cls-24{mask:url(#mask-1);}.cls-16{opacity:.7;}</style><linearGradient id="linear-gradient" x1="27.11" y1="-.41" x2="27.11" y2="49.85" gradientTransform="matrix(1, 0, 0, 1, 0, 0)" gradientUnits="userSpaceOnUse"><stop offset="0" stop-color="#f0ca57"/><stop offset="1" stop-color="#d45b1a"/></linearGradient><filter id="luminosity-noclip-2" x="0" y="25.05" width="54.21" height="26.83" color-interpolation-filters="sRGB" filterUnits="userSpaceOnUse"><feFlood flood-color="#fff" result="bg"/><feBlend in="SourceGraphic" in2="bg"/></filter><filter id="luminosity-noclip-3" x="0" y="-8589.53" width="54.21" height="32766" color-interpolation-filters="sRGB" filterUnits="userSpaceOnUse"><feFlood flood-color="#fff" result="bg"/><feBlend in="SourceGraphic" in2="bg"/></filter><mask id="mask-1" x="0" y="-8589.53" width="54.21" height="32766" maskUnits="userSpaceOnUse"/><linearGradient id="linear-gradient-2" x1="1.08" y1="38.46" x2="50.38" y2="38.46" gradientTransform="matrix(1, 0, 0, 1, 0, 0)" gradientUnits="userSpaceOnUse"><stop offset="0" stop-color="#000"/><stop offset=".5" stop-color="#fff"/><stop offset="1" stop-color="#000"/></linearGradient><mask id="mask" x="0" y="25.05" width="54.21" height="26.83" maskUnits="userSpaceOnUse"><g class="cls-3"><g class="cls-24"><path class="cls-12" d="M31.54,50.27h-8.86C7.43,50.27,.31,37.35,.02,25.05c0,.27-.01,.54-.01,.8C0,38.38,7.1,51.88,22.68,51.88h8.86c15.58,0,22.68-13.49,22.68-26.03,0-.27,0-.54-.01-.8-.3,12.31-7.41,25.23-22.66,25.23Z"/></g></g></mask><linearGradient id="linear-gradient-3" x1="1.08" y1="38.46" x2="50.38" y2="38.46" gradientTransform="matrix(1, 0, 0, 1, 0, 0)" gradientUnits="userSpaceOnUse"><stop offset="0" stop-color="#f0ca57"/><stop offset=".5" stop-color="#f7c850"/><stop offset="1" stop-color="#fec649"/></linearGradient><linearGradient id="linear-gradient-4" x1="27.41" y1="7.42" x2="27.41" y2="39.86" gradientTransform="matrix(1, 0, 0, 1, 0, 0)" gradientUnits="userSpaceOnUse"><stop offset=".12" stop-color="#59cdec"/><stop offset=".85" stop-color="#545ed3"/><stop offset="1" stop-color="#2483e5"/></linearGradient><radialGradient id="radial-gradient" cx="-924.41" cy="252.79" fx="-924.41" fy="252.79" r="23.93" gradientTransform="translate(-142.92 -239.02) rotate(-90.32) scale(.27 .67)" gradientUnits="userSpaceOnUse"><stop offset="0" stop-color="#fff"/><stop offset=".12" stop-color="#c6c6c6"/><stop offset=".24" stop-color="#929292"/><stop offset=".37" stop-color="#656565"/><stop offset=".5" stop-color="#404040"/><stop offset=".62" stop-color="#242424"/><stop offset=".75" stop-color="#101010"/><stop offset=".88" stop-color="#040404"/><stop offset="1" stop-color="#000"/></radialGradient><mask id="mask-2" x="12.51" y="4.98" width="32.21" height="13.02" maskUnits="userSpaceOnUse"><path class="cls-21" d="M28.58,4.98c8.89-.05,16.12,2.83,16.14,6.42,.02,3.59-7.17,6.55-16.07,6.6-8.89,.05-16.12-2.83-16.14-6.42-.02-3.6,7.18-6.55,16.07-6.6Z"/></mask></defs><g class="cls-22"><g id="Layer_2"><g id="Layer_1-2"><g><g><path class="cls-4" d="M54.16,31.03c-.01-.16-.02-.33-.03-.49-.04-.47-.08-.94-.13-1.4-.29-2.52-.88-5.03-1.79-7.39-.18-.47-.37-.93-.57-1.38-1.37-3.08-3.29-5.86-5.8-8.07-.59-.52-1.2-1.01-1.85-1.45-3.3-2.28-7.44-3.66-12.45-3.66h-8.86C11.45,7.18,4.62,14.1,1.69,22.6c-.16,.47-.31,.94-.45,1.41-.13,.46-.25,.91-.36,1.37-.11,.46-.21,.93-.3,1.4-.27,1.41-.45,2.84-.53,4.27-.03,.61-.05,1.22-.05,1.83,0,2.04,.19,4.11,.59,6.14,.09,.47,.19,.94,.3,1.41,.17,.7,.36,1.38,.58,2.07,.15,.49,.32,.96,.5,1.43h0c3.08,8.15,9.82,14.65,20.71,14.65h8.86c6.86,0,12.08-2.58,15.77-6.53,.41-.44,.8-.89,1.17-1.36,2.2-2.77,3.74-6.07,4.67-9.56,.13-.47,.24-.94,.34-1.41,.49-2.25,.73-4.55,.73-6.82,0-.62-.02-1.23-.05-1.85Zm-10.66,8.8c-.15,.47-.31,.94-.51,1.41-1.63,3.98-4.9,7.85-11.46,7.85h-8.86c-4.65,0-7.64-1.95-9.58-4.5-.36-.47-.68-.96-.96-1.46-.48-.84-.87-1.71-1.19-2.58-.17-.48-.33-.94-.45-1.41-.84-2.96-.9-5.61-.9-6.26,0-.28,.01-.93,.09-1.81,.09-1.06,.29-2.47,.68-3.98,.12-.46,.25-.92,.42-1.39,.19-.58,.42-1.18,.69-1.76,.22-.48,.45-.95,.72-1.41,1.86-3.19,5.04-5.86,10.48-5.86h8.86c4.36,0,7.27,1.71,9.21,4.03,.37,.44,.7,.9,1,1.38,1.45,2.3,2.17,4.92,2.52,7.02,.08,.5,.15,.97,.19,1.41,.02,.19,.04,.37,.06,.55,.08,.89,.09,1.55,.09,1.83,0,.7-.07,3.71-1.11,6.95Z"/><path class="cls-7" d="M54.16,27.48c0-.17-.02-.33-.02-.49-.04-.47-.08-.94-.14-1.41-.29-2.52-.88-5.02-1.79-7.38-.18-.46-.37-.93-.57-1.38-1.37-3.07-3.3-5.86-5.8-8.07-.59-.52-1.2-1-1.85-1.45-3.3-2.28-7.44-3.66-12.45-3.66h-8.86C11.45,3.63,4.62,10.55,1.69,19.05c-.16,.46-.31,.94-.45,1.41-.13,.46-.25,.91-.36,1.38-.11,.46-.21,.93-.3,1.4-.27,1.41-.45,2.84-.53,4.27-.03,.61-.05,1.22-.05,1.83,0,2.05,.19,4.11,.59,6.14,.09,.47,.19,.94,.3,1.41,.17,.69,.36,1.38,.58,2.06,.15,.49,.32,.96,.5,1.43h0c.96,2.55,2.28,4.93,3.97,7,.34,.42,.7,.83,1.07,1.22,3.68,3.89,8.87,6.43,15.67,6.43h8.86c6.87,0,12.08-2.58,15.77-6.53,.41-.44,.8-.89,1.17-1.36,2.2-2.78,3.74-6.08,4.67-9.56,.13-.47,.24-.93,.34-1.41,.49-2.25,.73-4.55,.73-6.82,0-.61-.02-1.22-.06-1.85Zm-31.48,18.06c-1.5,0-2.83-.2-4-.56-2.47-.76-4.26-2.2-5.57-3.93-.36-.47-.68-.96-.96-1.47-.49-.84-.87-1.71-1.19-2.58-.17-.47-.32-.95-.45-1.41-.84-2.97-.9-5.61-.9-6.26,0-.28,0-.93,.09-1.82,.09-1.06,.29-2.46,.68-3.97,.12-.46,.25-.92,.42-1.39,.19-.59,.42-1.18,.68-1.76,.22-.48,.46-.95,.72-1.41,1.85-3.19,5.03-5.86,10.48-5.86h8.86c4.36,0,7.27,1.72,9.21,4.03,.37,.44,.7,.9,1.01,1.38,1.45,2.29,2.16,4.92,2.52,7.02,.09,.51,.15,.98,.2,1.41,.02,.19,.04,.37,.05,.55,.08,.89,.09,1.55,.09,1.83,0,.7-.07,3.72-1.11,6.96-.15,.46-.31,.94-.51,1.41-1.63,3.98-4.9,7.85-11.46,7.85h-8.86Z"/><path class="cls-1" d="M53.33,18.39c-.12-.47-.24-.94-.37-1.41-.83-2.89-2.09-5.63-3.78-8.04-.35-.49-.72-.98-1.1-1.45C44.36,3,38.89,0,31.54,0h-8.86c-3.31,0-6.25,.61-8.8,1.69-.9,.37-1.75,.81-2.55,1.3C5.54,6.49,2.07,12.66,.69,19.3c-.1,.47-.19,.95-.26,1.43-.07,.46-.13,.91-.19,1.36-.06,.47-.1,.95-.14,1.42-.06,.84-.09,1.68-.09,2.52,0,.61,.02,1.22,.05,1.83,.15,2.73,.64,5.47,1.48,8.08,.15,.48,.32,.96,.49,1.43,.28,.74,.59,1.46,.93,2.17,.24,.5,.49,.99,.76,1.47,3.57,6.39,9.8,11.05,18.97,11.05h8.86c4.56,0,8.4-1.16,11.54-3.1,.67-.41,1.3-.87,1.91-1.35,3.11-2.48,5.41-5.82,6.93-9.54,.19-.47,.38-.95,.54-1.43,.98-2.82,1.55-5.82,1.71-8.8,0-.17,.02-.33,.03-.5,.02-.43,.03-.87,.03-1.3v-.12c0-2.51-.3-5.06-.89-7.52Zm-8.81,9.47c-.19,2.19-1.17,4.4-3.02,7.49-.3,.49-1.32,1.76-1.69,2.22-1.93,2.44-3.8,3.82-8.27,3.82h-8.86c-1.45,0-2.63-.54-3.77-.89-1.26-.37-1.64-.47-2.58-1.16,0,0-1.25-.62-1.25-.62-1.08-.8-1.55-.18-2.27-1.23-.32-.46-.61-.94-.87-1.43-1.55-2.92-2.07-6.16-2.25-8.19-.08-.9-.09-1.55-.09-1.84,0-.32,.02-1.13,.13-2.21,.05-.43,.1-.91,.18-1.42,.09-.54,.2-1.13,.34-1.74,.11-.46,.23-.94,.38-1.43,1.37-4.54,4.58-9.62,12.04-9.62h8.86c6.42,0,9.69,3.76,11.35,7.7,.2,.47,.37,.94,.53,1.4,1.06,3.19,1.18,6.22,1.19,7.17v.15c0,.22,0,.67-.05,1.28,0,.17-.03,.35-.04,.55Z"/><g class="cls-17"><g class="cls-2"><path class="cls-19" d="M31.54,50.27h-8.86C7.43,50.27,.31,37.35,.02,25.05c0,.27-.01,.54-.01,.8C0,38.38,7.1,51.88,22.68,51.88h8.86c15.58,0,22.68-13.49,22.68-26.03,0-.27,0-.54-.01-.8-.3,12.31-7.41,25.23-22.66,25.23Z"/></g></g><g class="cls-13"><path class="cls-10" d="M53.33,18.15c-.37,.01-.74,.03-1.11,.04-2.67,.1-5.61,.19-8.79,.28-.55,.02-1.11,.03-1.67,.05-38.21,1.05-1.62,1.65-30.27,1.86-.42,0-.83,0-1.22,0-3.93,.03-7,.05-9.01,.07H.43c.08-.46,.17-.94,.26-1.4,.3,0,.64,0,1,0,2.07-.02,5.12-.03,8.95-.06,.51,0,1.03,0,1.56-.01,28.84-.21-9.51-.8,28.55-1.83,.73-.02,1.44-.04,2.15-.06,3.16-.09,6.09-.18,8.75-.28,.45-.02,.88-.03,1.31-.05,.13,.46,.26,.93,.37,1.39Z"/><path class="cls-10" d="M54.22,25.58v.12c0,.43,0,.86-.03,1.29h-.05c-.49,0-.98,0-1.5,0-2.45,0-5.15-.01-8.07-.04h-.1c-37.31-.32-4.57-2.5-34.09-3.42-.22,0-.43-.02-.64-.02-3.95-.12-7.07-.22-9.15-.28-.17-.01-.33-.02-.48-.02,.03-.47,.08-.93,.14-1.4,.2,0,.42,.01,.65,.02,2.11,.07,5.18,.17,9.03,.29,.29,.01,.58,.02,.87,.03,29.7,.92-3.71,3.08,33.48,3.4,.11,0,.22,0,.34,0,3.47,.03,6.62,.04,9.39,.03h.22Z"/><path class="cls-10" d="M53.49,36.15c-.1,.48-.22,.95-.34,1.41-.4,0-.81,.01-1.23,.02-2.73,.04-5.71,.08-8.92,.11-.69,0-1.4,.01-2.11,.02-6.65,.05,11.28,.07,11.03,.07-16.95,0-14.55-.49-39.1-.76-.64,0-1.26-.02-1.86-.02-3.67-.04-6.69-.08-8.93-.11-.4,0-.78,0-1.13-.01l-.3-1.41c.29,0,.6,0,.94,.02,2.19,.02,5.23,.06,8.97,.1,.47,0,.95,.01,1.44,.02,29.52,.33-8.51,1.01,29.93,.69,.55,0,1.1-.01,1.63-.01,3.23-.03,6.23-.07,8.95-.11,.35,0,.69-.01,1.03-.02Z"/></g><polygon class="cls-18" points="43.86 18.66 53.31 18.39 53.64 19.91 43.76 19.38 43.86 18.66"/><path class="cls-18" d="M45.28,27.29l8.86,.04s.03,2.94-.9,6.67c0,0,.58-4.71-1.29-5.38-1.87-.67-8.49-.71-8.49-.71l1.82-.62Z"/><path class="cls-18" d="M39.87,38.13l13.28-.08-.26,.97s-1.29-.23-7.44-.38c-6.68-.16-12.1-.18-12.1-.18l6.52-.33Z"/><g class="cls-16"><path class="cls-7" d="M32.57,44.11h-10.31c-12.87,0-13.24-14.93-13.24-16.63s.37-16.63,13.24-16.63h10.31c12.86,0,13.24,14.93,13.24,16.63s-.37,16.63-13.24,16.63Z"/></g><path class="cls-20" d="M32.57,41.39h-10.31c-12.87,0-13.24-14.93-13.24-16.63s.37-16.63,13.24-16.63h10.31c12.86,0,13.24,14.93,13.24,16.63s-.37,16.63-13.24,16.63Z"/><g class="cls-14"><path class="cls-11" d="M43.85,23.61c-.16,2.44-1.18,9.66-6.4,12.15-5.31,2.54-14.11,2.61-19.33-.12-5.46-2.85-6.7-9.6-6.86-12.03-.04,.63-1.37,16.12,11.89,16.12h8.82c13.26,0,11.92-15.49,11.88-16.12Z"/></g><path class="cls-6" d="M11.26,23.72c.17-2.13,.48-8.81,5.7-10.98,2.66-1.11,6.89-1.32,10.41-1.32,3.52,0,8.09,.23,10.7,1.43,5.46,2.49,5.63,8.75,5.79,10.88,.04-.55,1.38-14.1-11.88-14.1h-8.83c-13.26,0-11.92,13.56-11.89,14.1Z"/><g class="cls-23"><path class="cls-6" d="M28.58,4.98c8.89-.05,12.38,2.75,12.4,6.35,.02,3.59-3.44,6.62-12.33,6.67-8.89,.05-16.12-2.83-16.14-6.42-.02-3.6,7.18-6.55,16.07-6.6Z"/></g><path class="cls-9" d="M28.37,29.12l.15,.17-.57,2.34c0,.28-.04,.57-.12,.85-.63,2.12-3.54,3.14-6.49,2.26-2.91-.87-4.78-3.26-4.21-5.38,.01-.03,.01-.05,.02-.08,.64-2.13,3.54-3.14,6.49-2.26,.11,.03,.21,.06,.31,.1l.56-2.28,3.86,4.28Z"/><polygon class="cls-9" points="37.84 17.33 36.68 22.14 30.62 20.67 30.24 22.24 29.95 23.41 28.81 28.11 28.66 27.94 28.49 27.76 28.34 27.59 24.79 23.66 25.81 19.49 25.94 18.96 26.22 17.78 26.98 14.68 31.79 15.85 37.66 17.29 37.84 17.33"/><g class="cls-15"><rect class="cls-8" x="25.11" y="12.71" width="4" height="23.09" transform="translate(-9.27 24.41) rotate(-42.06)"/></g><path class="cls-5" d="M24.51,24.84l3.86,4.28-.33,1.35c0,.28-.03,.57-.12,.85-.64,2.13-3.55,3.14-6.49,2.26-2.39-.71-4.08-2.45-4.3-4.22-.04-.41-.01-.83,.11-1.23,.63-2.14,3.54-3.15,6.49-2.27,.1,.04,.21,.07,.31,.1l.31-1.29,.16,.17Z"/><polygon class="cls-5" points="37.93 16.17 37.66 17.29 36.76 20.99 30.71 19.51 30.09 22.07 29.8 23.24 28.66 27.94 28.49 27.76 28.34 27.59 24.79 23.66 24.64 23.49 25.78 18.78 25.89 18.34 26.07 17.61 27.07 13.53 31.88 14.7 37.93 16.17"/></g><polygon class="cls-5" points="36.33 30.48 33.36 33.16 28.81 28.11 28.66 27.94 28.49 27.76 28.34 27.59 24.79 23.66 24.64 23.49 24.47 23.3 24.32 23.14 17.9 16.02 20.87 13.34 25.47 18.44 25.62 18.6 25.78 18.78 25.94 18.96 29.48 22.89 29.63 23.05 29.8 23.24 29.95 23.41 36.33 30.48"/></g></g></g></g></svg>