<?xml version="1.0" encoding="UTF-8"?><svg xmlns="http://www.w3.org/2000/svg" viewBox="0 0 111.75 177.16"><defs><style>.d{fill:#f2ecdf;}.e{fill:#ffe94b;}.f{fill:#ff3e2d;}.g{fill:#a16333;}.h{fill:#bd7f27;}.i{fill:#d7c9b7;}.j{fill:#d08f2b;}.k{fill:#495862;}.l{fill:#60beee;}.m{fill:#e6e6e6;mix-blend-mode:multiply;}.n{isolation:isolate;}</style></defs><g class="n"><g id="a"/><g id="b"><g id="c"><g><ellipse class="m" cx="58.03" cy="168.74" rx="7.99" ry="53.75" transform="translate(-113.38 218.36) rotate(-87.17)"/><g><path class="g" d="M56.27,135.81l-.5,7.95-1.65,26.18c-.11,1.81-1.31,3.2-2.73,3.2-.04,0-.07,0-.11,0-1.56-.08-2.76-1.8-2.62-3.78l1.82-25.93,.47-6.67,5.32-.94Z"/><polygon class="h" points="56.27 135.81 55.77 143.75 50.48 143.41 50.95 136.74 56.27 135.81"/><ellipse class="i" cx="60.12" cy="68.82" rx="51.63" ry="68.82"/><path class="g" d="M32.2,130.99l-1.29,6.32-6.72,32.9c-.39,1.92-1.93,3.07-3.44,2.57-1.27-.42-2.11-1.87-2.11-3.47,0-.3,.03-.61,.09-.91l6.96-33.72,1.47-7.09,5.04,3.4Z"/><polygon class="h" points="32.2 130.99 30.91 137.31 25.7 134.68 27.16 127.59 32.2 130.99"/><ellipse class="d" cx="51.63" cy="68.82" rx="51.63" ry="68.82"/><ellipse class="k" cx="49.84" cy="68.82" rx="42.65" ry="56.85"/><ellipse class="l" cx="48.18" cy="68.82" rx="30.91" ry="41.2"/><ellipse class="f" cx="46.08" cy="68.82" rx="19.57" ry="26.09"/><ellipse class="e" cx="44.51" cy="68.82" rx="9.45" ry="12.59"/><path class="g" d="M104.43,168.81c0,1.36-.63,2.62-1.6,3.2-.32,.19-.68,.31-1.06,.33-1.2,.07-2.3-.85-2.73-2.27l-13.27-44.18c-.49-1.63,.02-3.47,1.21-4.35,.12-.09,.25-.17,.37-.23,1.43-.72,3.09,.16,3.65,2.04l13.24,44.19c.12,.42,.18,.85,.18,1.26Z"/><path class="j" d="M104.43,168.81c0,1.36-.63,2.62-1.6,3.2l-15.48-50.7c1.43-.72,3.09,.16,3.65,2.04l13.24,44.19c.12,.42,.18,.85,.18,1.26Z"/></g></g></g></g></g></svg>